<?xml version="1.0" standalone="no"?>
<!DOCTYPE svg PUBLIC "-//W3C//DTD SVG 20010904//EN"
 "http://www.w3.org/TR/2001/REC-SVG-20010904/DTD/svg10.dtd">
<svg version="1.0" xmlns="http://www.w3.org/2000/svg"
 width="499.000000pt" height="374.000000pt" viewBox="0 0 499.000000 374.000000"
 preserveAspectRatio="xMidYMid meet">

<g transform="translate(0.000000,374.000000) scale(0.100000,-0.100000)"
fill="#000000" stroke="none">
<path d="M1266 3731 c-4 -5 -4 -25 -2 -44 4 -28 1 -37 -12 -40 -14 -4 -13 -5
3 -6 27 -2 63 -33 75 -66 6 -15 13 -59 16 -97 6 -69 6 -69 -17 -64 -273 61
-436 99 -584 137 -66 16 -151 36 -190 43 -38 7 -88 18 -110 24 -22 6 -85 20
-140 32 -55 11 -125 27 -155 35 -30 7 -76 16 -102 20 l-48 7 0 -84 0 -84 33
-2 c28 -2 717 -155 749 -167 7 -2 24 -6 38 -9 24 -4 316 -70 453 -103 l67 -16
0 -46 c0 -55 -48 -324 -70 -396 -5 -16 -12 -46 -15 -65 -25 -154 -60 -296 -82
-333 -13 -23 -35 -60 -49 -82 -29 -49 -30 -74 -3 -153 20 -59 20 -63 4 -113
-21 -63 -15 -94 29 -156 l34 -48 5 -280 c6 -315 14 -364 75 -478 43 -80 120
-156 214 -213 35 -20 65 -39 67 -40 2 -2 -4 -39 -13 -82 -17 -81 -22 -213 -11
-311 15 -125 75 -310 131 -404 l29 -47 109 0 108 0 -58 43 c-95 71 -234 208
-259 257 -30 60 -46 157 -46 285 0 105 6 139 42 251 l19 60 138 0 c107 1 157
5 226 23 113 27 209 66 264 104 70 50 122 150 122 235 0 17 3 32 8 32 4 0 41
-34 82 -76 202 -204 349 -293 640 -385 74 -23 140 -48 145 -55 11 -13 65 -44
205 -117 93 -48 97 -49 165 -44 100 6 167 41 307 158 25 22 92 56 162 85 66
26 134 58 151 70 l33 22 11 -38 c57 -189 29 -456 -62 -596 -17 -27 -30 -53
-29 -57 1 -5 -2 -6 -7 -3 -5 3 -21 -11 -37 -31 -36 -48 -144 -149 -202 -190
l-46 -33 491 0 491 0 39 78 c21 42 45 96 53 120 7 23 16 42 19 42 3 0 7 -53 9
-117 2 -65 5 -120 8 -122 2 -2 4 839 4 1869 0 1030 -3 1870 -7 1866 -4 -3 -7
-269 -8 -591 0 -321 -3 -586 -5 -588 -3 -3 -35 3 -73 11 -46 11 -66 20 -63 29
3 8 -10 17 -37 24 -34 9 -38 13 -23 19 27 9 8 20 -46 25 -65 7 -89 13 -127 31
-19 9 -66 23 -105 31 -73 15 -100 28 -90 44 7 11 12 11 -131 15 -66 3 -139 5
-161 6 l-41 2 -17 70 c-20 86 -74 219 -108 269 -118 174 -331 327 -564 405
-152 52 -248 65 -424 59 -85 -3 -165 -9 -178 -12 -13 -4 -22 -4 -21 1 1 5 1
42 0 82 l-1 72 -85 0 -85 0 14 -34 c7 -18 17 -52 21 -76 l7 -43 -69 56 c-132
105 -187 119 -278 69 -74 -40 -73 -65 2 -98 111 -50 188 -87 208 -101 18 -12
6 -13 -95 -7 -163 9 -218 -4 -266 -62 -37 -45 -40 -73 -7 -75 35 -2 88 3 126
11 20 4 37 5 37 1 0 -3 -33 -29 -73 -58 -46 -33 -74 -48 -79 -40 -7 11 -17 14
-86 21 -23 3 -46 7 -50 10 -4 2 -32 5 -62 7 -30 1 -72 8 -93 15 -41 15 -39 14
-68 14 -24 0 -21 22 4 27 34 6 42 9 64 21 12 7 27 11 34 10 6 -2 13 2 16 9 2
7 -4 11 -16 10 -12 -1 -21 -5 -21 -10 0 -4 -4 -5 -10 -2 -5 3 -10 1 -10 -5 0
-6 -4 -9 -9 -5 -5 3 -12 1 -16 -5 -4 -6 -11 -8 -16 -5 -5 4 -9 2 -9 -3 0 -12
-32 -11 -49 2 -11 8 -13 8 -8 -1 4 -6 3 -14 -2 -17 -5 -3 -7 -15 -4 -26 5 -18
28 -26 57 -21 4 1 14 -4 22 -10 8 -6 14 -8 14 -4 0 4 6 2 13 -4 8 -6 17 -8 20
-4 4 3 7 1 7 -6 0 -7 -6 -11 -12 -8 -7 2 -39 10 -70 17 l-57 13 -25 76 c-26
78 -56 191 -56 209 0 12 135 5 162 -9 17 -9 18 -13 5 -27 -24 -29 -27 -40 -14
-45 9 -3 13 3 13 17 -1 11 4 20 10 19 5 -1 10 9 10 22 0 13 -4 21 -8 19 -4 -3
-8 -1 -8 4 0 10 1 9 -93 16 -77 6 -88 10 -80 32 4 12 8 12 22 2 14 -12 15 -11
2 5 -11 13 -11 23 -3 41 6 13 8 27 5 30 -4 3 -76 6 -162 6 l-156 0 -13 -29
c-12 -27 -11 -32 7 -50 12 -12 26 -21 33 -21 9 0 9 -3 0 -12 -9 -9 -18 -9 -37
0 -24 11 -29 26 -28 95 0 18 -31 24 -41 8z m209 -101 c4 -6 9 -131 11 -278 2
-147 6 -281 8 -299 3 -25 0 -32 -17 -37 -11 -3 -24 -3 -28 0 -10 6 -1 104 12
131 15 28 2 236 -13 227 -7 -4 -9 -36 -5 -88 6 -78 3 -99 -32 -216 l-11 -35 5
43 c8 62 6 256 -4 397 -4 66 -5 124 -3 129 8 15 21 -18 27 -70 4 -27 12 -55
19 -61 9 -10 11 7 8 77 -3 84 5 110 23 80z m125 -22 c0 -13 9 -66 21 -118 11
-52 22 -106 24 -120 5 -38 27 -80 37 -73 6 3 4 -5 -3 -18 -11 -22 -11 -23 4
-10 15 12 17 11 17 -3 0 -27 1 -31 14 -46 7 -8 16 -28 20 -44 4 -17 17 -43 29
-60 12 -17 15 -26 6 -21 -8 5 -6 -1 5 -13 10 -12 20 -33 21 -47 3 -22 1 -24
-17 -14 -12 7 -18 18 -15 29 3 14 1 17 -11 13 -10 -4 -13 -2 -8 5 10 17 -3 54
-16 46 -6 -4 -8 -3 -5 3 4 6 0 18 -7 29 -8 10 -12 24 -9 30 2 7 0 15 -6 18 -6
4 -8 13 -4 22 3 9 0 14 -8 12 -7 -2 -13 2 -14 7 0 6 -4 16 -8 23 -5 6 -6 16
-2 21 3 5 1 12 -5 16 -9 5 -33 77 -46 136 -34 162 -39 199 -24 199 6 0 10 -10
10 -22z m-220 -30 c0 -7 3 -69 7 -138 3 -69 3 -123 1 -120 -3 3 -8 46 -11 95
-3 50 -9 109 -13 133 -4 28 -3 42 5 42 6 0 11 -6 11 -12z m1835 -19 c129 -23
306 -93 411 -163 21 -14 56 -37 77 -51 55 -37 138 -121 194 -196 91 -121 151
-314 159 -509 3 -69 1 -131 -4 -138 -6 -9 -16 -10 -40 -1 -31 11 -32 13 -25
48 13 58 8 147 -8 167 -43 52 -162 68 -294 38 -38 -9 -96 -18 -127 -21 -53 -5
-63 -2 -171 52 -96 48 -124 58 -169 58 -79 0 -156 -40 -221 -117 -146 -172
-232 -231 -392 -270 -258 -63 -344 -114 -370 -219 -5 -18 -13 -27 -23 -25 -12
2 -24 35 -43 118 -63 277 -114 400 -233 555 -12 16 42 129 99 210 135 190 415
370 699 450 108 30 347 37 481 14z m-1620 -197 c-15 -16 -35 61 -34 133 1 47
2 45 20 -39 10 -49 17 -92 14 -94z m321 -65 c8 3 14 -1 14 -8 0 -12 2 -12 9 0
6 10 17 11 37 6 16 -5 32 -9 37 -10 4 -2 16 -3 28 -4 11 0 18 -5 14 -11 -3 -5
-13 -7 -23 -4 -14 5 -15 4 -2 -5 13 -9 13 -11 -2 -11 -10 0 -18 5 -18 11 0 5
-5 7 -11 4 -5 -4 -20 1 -31 12 -12 10 -18 12 -14 6 9 -16 2 -16 -48 -2 -29 8
-35 13 -25 20 8 5 15 5 17 -1 2 -5 10 -6 18 -3z m-382 -44 c-1 -16 1 -32 4
-38 7 -11 4 -67 -5 -110 -7 -28 -8 -26 -14 20 -12 82 -10 143 4 148 6 3 12 6
12 6 1 1 0 -11 -1 -26z m556 5 c-20 -19 -40 -24 -40 -10 0 15 22 31 41 29 17
-1 17 -2 -1 -19z m-705 -110 c-4 -62 -8 -127 -9 -145 -1 -18 -9 -40 -19 -50
-18 -17 -19 -16 -14 32 5 63 28 246 33 263 2 6 6 12 10 12 4 0 3 -51 -1 -112z
m512 -29 c88 -20 91 -22 83 -44 -14 -36 -70 -145 -75 -145 -2 0 -17 19 -34 43
-31 46 -84 167 -73 167 4 0 48 -9 99 -21z m-550 -261 c-4 -35 -20 -108 -37
-162 -16 -55 -30 -118 -31 -140 -1 -23 -5 -52 -10 -66 -16 -46 -1 183 16 240
9 30 25 85 36 123 11 37 23 67 26 67 3 0 3 -28 0 -62z m1942 -48 c33 -11 88
-36 123 -57 80 -47 132 -52 255 -24 237 53 337 6 304 -144 -12 -54 -26 -69
-37 -40 -4 8 -11 15 -18 15 -6 0 6 -16 26 -35 47 -44 102 -58 307 -80 90 -9
192 -25 227 -36 102 -31 226 -138 279 -239 23 -44 32 -186 16 -261 -51 -237
-317 -492 -611 -587 -107 -35 -233 -52 -384 -52 -333 0 -612 102 -901 330
-177 140 -485 477 -485 532 0 10 -7 18 -16 18 -45 0 35 -127 167 -265 50 -53
91 -105 95 -122 16 -65 135 -273 218 -381 111 -145 204 -207 311 -206 39 0 72
6 95 18 25 14 31 15 23 5 -7 -8 -34 -26 -60 -39 -103 -53 -216 -19 -333 101
-69 70 -146 187 -251 382 -74 137 -169 270 -263 367 -127 132 -143 183 -87
272 47 74 82 91 331 163 69 20 152 52 185 70 60 33 142 111 204 193 51 65 138
119 199 121 12 1 49 -8 81 -19z m960 -45 c111 -2 126 -4 140 -23 15 -18 39
-25 126 -39 17 -2 49 -13 71 -24 51 -24 80 -31 119 -30 27 2 29 0 14 -14 -12
-12 -26 -14 -57 -9 -23 4 -40 9 -38 13 2 3 -8 6 -22 7 -15 0 -38 3 -52 7 -14
3 -85 20 -159 37 -74 17 -158 37 -185 44 -28 8 -68 17 -88 21 -21 3 -38 10
-38 15 0 5 10 6 23 3 12 -3 78 -7 146 -8z m-2241 -168 c22 -51 50 -137 61
-192 40 -191 58 -295 53 -300 -18 -18 -31 0 -37 53 -22 178 -70 376 -119 486
-30 67 -31 73 -12 57 8 -7 32 -53 54 -104z m2225 -21 c72 -18 175 -42 227 -54
443 -97 508 -115 514 -136 3 -12 4 -313 3 -670 l-2 -649 -100 -17 c-137 -24
-372 -82 -479 -120 -89 -32 -116 -33 -116 -6 0 38 -89 277 -138 367 -1 4 10
10 25 14 66 16 252 116 321 172 155 126 275 300 302 440 33 165 -4 278 -130
395 -83 78 -144 110 -253 132 -59 12 -267 36 -314 36 -7 0 -13 12 -13 28 0 33
11 102 16 102 3 0 64 -15 137 -34z m-2968 -247 c8 -57 5 -64 -24 -54 -23 7
-27 37 -11 79 15 40 27 31 35 -25z m-34 -318 c21 -147 20 -191 -7 -226 -14
-19 -15 -16 -9 30 7 48 5 52 -34 94 -50 54 -56 81 -32 155 l18 59 -24 60 c-28
68 -25 92 15 152 l27 40 12 -110 c7 -60 22 -175 34 -254z m25 127 c4 -38 3
-58 -4 -58 -12 0 -29 129 -22 165 3 18 19 -48 26 -107z m63 -189 c12 -81 28
-180 36 -220 8 -41 25 -129 37 -196 l22 -121 -25 -46 -24 -46 -7 32 c-3 18
-14 87 -22 153 -23 173 -23 173 -51 315 -7 36 -26 149 -31 189 -2 18 0 39 5
45 5 6 12 25 15 41 2 17 5 35 6 40 4 25 21 -53 39 -186z m913 80 c100 -39 165
-78 200 -121 41 -50 67 -98 65 -118 -1 -15 12 -102 34 -225 12 -64 52 -216 69
-259 5 -14 7 -26 4 -26 -2 0 -44 33 -92 74 -116 98 -156 118 -244 118 l-70 0
9 27 c4 14 8 53 8 86 0 47 -5 68 -25 97 -14 21 -30 38 -35 38 -6 0 -31 20 -55
45 l-44 44 53 56 c58 61 55 50 39 160 -2 11 -7 24 -13 28 -15 11 42 -3 97 -24z
m-977 -375 c25 -33 26 -39 20 -97 -19 -154 -5 -283 44 -432 17 -49 29 -91 27
-92 -5 -6 -52 60 -75 106 -13 24 -29 73 -37 110 -18 83 -32 441 -17 441 6 0
23 -16 38 -36z m876 -301 c13 -17 13 -17 -6 -3 -11 8 -22 16 -24 17 -2 2 0 3
6 3 6 0 17 -8 24 -17z m129 -14 c0 -14 -13 -10 -40 11 l-25 20 33 -11 c17 -6
32 -15 32 -20z"/>
<path d="M3476 3286 c-222 -109 -207 -396 26 -501 51 -23 71 -27 127 -23 98 5
138 30 179 109 123 242 -103 526 -332 415z m173 -2 c46 -9 114 -75 147 -141
24 -49 29 -70 29 -133 -1 -130 -67 -220 -174 -235 -129 -18 -262 72 -307 207
-27 83 -6 162 63 234 63 64 145 87 242 68z"/>
<path d="M3450 3105 c0 -8 5 -15 10 -15 6 0 10 7 10 15 0 8 -4 15 -10 15 -5 0
-10 -7 -10 -15z"/>
<path d="M2495 3104 c-11 -3 -51 -21 -90 -40 -56 -28 -77 -45 -107 -88 -87
-124 -77 -328 20 -404 77 -62 120 -77 212 -77 78 0 92 3 168 40 98 46 152 100
179 178 50 149 -10 296 -150 369 -32 16 -63 22 -127 24 -47 2 -94 0 -105 -2z
m222 -40 c94 -45 151 -124 160 -223 14 -162 -134 -316 -319 -329 -86 -6 -141
9 -204 57 -80 59 -111 146 -93 261 17 109 71 183 166 227 104 48 198 50 290 7z"/>
<path d="M2610 2960 c-12 -7 -12 -12 -2 -22 14 -14 35 1 24 19 -5 8 -13 9 -22
3z"/>
<path d="M1977 3279 c7 -7 15 -10 18 -7 3 3 -2 9 -12 12 -14 6 -15 5 -6 -5z"/>
<path d="M3396 2652 c-9 -15 -15 -62 -8 -62 4 0 12 16 18 35 10 31 3 48 -10
27z"/>
<path d="M3108 2604 c-11 -10 1 -24 21 -24 10 0 35 -11 56 -25 47 -33 58 -24
19 15 -29 29 -82 48 -96 34z"/>
<path d="M1208 3633 c7 -3 16 -2 19 1 4 3 -2 6 -13 5 -11 0 -14 -3 -6 -6z"/>
<path d="M1128 3623 c6 -2 18 -2 25 0 6 3 1 5 -13 5 -14 0 -19 -2 -12 -5z"/>
<path d="M1030 3610 c-12 -8 -10 -10 8 -10 13 0 20 4 17 10 -7 12 -6 12 -25 0z"/>
<path d="M1070 3609 c0 -5 5 -7 10 -4 6 3 10 8 10 11 0 2 -4 4 -10 4 -5 0 -10
-5 -10 -11z"/>
<path d="M968 3593 c7 -3 16 -2 19 1 4 3 -2 6 -13 5 -11 0 -14 -3 -6 -6z"/>
<path d="M1821 3517 c2 -10 8 -17 13 -17 5 1 12 -3 16 -10 4 -6 13 -13 21 -14
44 -9 68 -19 63 -27 -3 -5 -9 -7 -13 -5 -4 3 -8 -1 -8 -9 0 -10 4 -12 12 -5 7
5 14 7 17 5 3 -3 5 4 4 17 -1 17 -10 24 -43 33 -23 5 -51 19 -63 30 -20 18
-22 18 -19 2z"/>
</g>
</svg>
